<?xml version="1.0" encoding="utf-8"?>
<!-- Generator: Adobe Illustrator 21.1.0, SVG Export Plug-In . SVG Version: 6.00 Build 0)  -->
<svg version="1.1"
	 id="Layer_1" xmlns:cc="http://creativecommons.org/ns#" xmlns:dc="http://purl.org/dc/elements/1.1/" xmlns:inkscape="http://www.inkscape.org/namespaces/inkscape" xmlns:rdf="http://www.w3.org/1999/02/22-rdf-syntax-ns#" xmlns:sodipodi="http://sodipodi.sourceforge.net/DTD/sodipodi-0.dtd" xmlns:svg="http://www.w3.org/2000/svg"
	 xmlns="http://www.w3.org/2000/svg" xmlns:xlink="http://www.w3.org/1999/xlink" x="0px" y="0px" viewBox="0 0 52 52"
	 style="enable-background:new 0 0 52 52;" xml:space="preserve">
<g transform="translate(0,-952.36218)">
	<path d="M26,952.4c-14.4,0-26,11.6-26,26c0,14.4,11.6,26,26,26c14.4,0,26-11.6,26-26C52,964,40.4,952.4,26,952.4L26,952.4z
		 M41.3,981.4H10c-1.7,0-3-1.3-3-3c0-1.7,1.3-3,3-3h31.3H42c1.7,0,3,1.3,3,3c0,1.7-1.3,3-3,3H41.3z"/>
</g>
</svg>
